<?xml version="1.0" encoding="UTF-8" standalone="no"?><!DOCTYPE svg PUBLIC "-//W3C//DTD SVG 1.1//EN" "http://www.w3.org/Graphics/SVG/1.1/DTD/svg11.dtd"><svg width="100%" height="100%" viewBox="0 0 8000 8000" version="1.1" xmlns="http://www.w3.org/2000/svg" xmlns:xlink="http://www.w3.org/1999/xlink" xml:space="preserve" xmlns:serif="http://www.serif.com/" style="fill-rule:evenodd;clip-rule:evenodd;stroke-linejoin:round;stroke-miterlimit:2;"><g transform="matrix(4.16667,0,0,4.16667,0,0)"><g transform="matrix(3.37959,0,0,3.37959,94.8912,94.8259)"><path d="M256,64c124,0 224,79 224,176c0,97 -100,176 -224,176c-28,0 -56,-4 -83,-13c-10,-3 -20,-1 -28,5c-23,16 -59,35 -103,39c12,-15 30,-40 41,-69l0,-1c4,-11 2,-24 -7,-33c-29,-30 -44,-66 -44,-104c0,-97 101,-176 224,-176m0,-32c-141,0 -256,93 -256,208c0,48 20,91 53,126c-15,40 -46,73 -46,73c-7,7 -9,18 -5,26c4,9 12,15 22,15c61,0 110,-26 139,-46c29,9 60,14 93,14c141,0 256,-93 256,-208c0,-115 -115,-208 -256,-208Z" style="fill:#5765f0;fill-rule:nonzero;"/></g><g transform="matrix(1.05853,0,0,1.05853,-56.189,-141.3)"><path d="M1344.92,767.541c-0,-106.221 -86.238,-192.459 -192.459,-192.459l-384.918,0c-106.221,0 -192.459,86.238 -192.459,192.459l0,384.918c0,106.221 86.238,192.459 192.459,192.459l384.918,-0c106.221,-0 192.459,-86.238 192.459,-192.459l-0,-384.918Z" style="fill:#5765f0;"/></g><g transform="matrix(1.32815,0,0,1.32815,619.994,534.883)"><path d="M491,85l-213,-81c-7,-3 -14,-4 -22,-4c-8,0 -15,1 -22,4l-213,81c-13,5 -21,17 -21,31l0,280c0,14 8,26 21,31l213,81c7,3 14,4 22,4c8,0 15,-1 22,-4l213,-81c13,-5 21,-17 21,-31l0,-280c0,-14 -8,-26 -21,-31Zm-246,-51c3,-1 7,-2 11,-2c4,0 8,1 11,2l199,76l-210,81l-211,-81l200,-76Zm-213,362l0,-257l208,80l0,257l-208,-80Zm240,80l0,-257l208,-80l0,258l-208,79Z" style="fill:#fff;fill-rule:nonzero;"/></g><g transform="matrix(1,0,0,1,-243.639,0)"><g transform="matrix(1.89744,0,0,1.89744,1154.16,963.157)"><circle cx="205.267" cy="132.673" r="97.627" style="fill:#e33c17;"/></g><g transform="matrix(1,0,0,1,285.269,194.432)"><g transform="matrix(288,0,0,288,1189.05,1123.96)"><path d="M0.373,-0l-0.088,-0l-0,-0.56c-0.021,0.02 -0.049,0.04 -0.084,0.06c-0.034,0.021 -0.065,0.036 -0.092,0.046l-0,-0.085c0.049,-0.023 0.092,-0.051 0.129,-0.084c0.037,-0.033 0.063,-0.065 0.078,-0.096l0.057,0l-0,0.719Z" style="fill:#fff;fill-rule:nonzero;"/></g></g></g></g></svg>